<svg xmlns="http://www.w3.org/2000/svg" viewBox="0 0 225.53 114.29"><path d="M.72,55.81a1.88,1.88,0,0,1,2.09-2.18H12c1.25,0,1.92.67,2.17,2,.67,3,3.18,4.52,8.12,4.52,5.44,0,7.2-2.09,7.2-4.52,0-3.43-4.19-4.94-9.29-6.7C11.93,46.1,1.47,42.67,1.47,29.86,1.47,18.14,11,12.29,21,12.29c9.79,0,19.17,5.27,20.17,17.4a1.88,1.88,0,0,1-2.09,2.18H29.84c-1.25,0-1.92-.67-2.17-2-.67-3.1-2.85-4.52-6.7-4.52-4.18,0-6.11,2.09-6.11,4.52,0,3.52,3.43,5.19,8.29,7,8.37,2.93,19.75,5.94,19.75,18.83,0,11.72-9.37,17.57-20.59,17.57C11.35,73.21,1.72,67.94.72,55.81Z" fill="#fff"/><path d="M117.56,15.8l-15,54.49A2.17,2.17,0,0,1,100.23,72H89.52a2.19,2.19,0,0,1-2.35-1.75l-6.6-24L74,70.29A2.17,2.17,0,0,1,71.61,72H60.89a2.18,2.18,0,0,1-2.34-1.75l-15-54.49c-.42-1.51.25-2.34,1.76-2.34h9.79a2.12,2.12,0,0,1,2.26,1.84l9.71,39.17,7.75-29L72.19,15.8c-.42-1.51.25-2.34,1.76-2.34h8.12a2.13,2.13,0,0,1,2.26,1.84L94,54.47l9.71-39.17A2.12,2.12,0,0,1,106,13.46h9.79C117.3,13.46,118,14.29,117.56,15.8Z" fill="#fff"/><path d="M14.93,85.34v.85a.59.59,0,0,1-.65.65H8.6v19.93a.58.58,0,0,1-.65.64H7a.58.58,0,0,1-.65-.64V86.84H.65A.59.59,0,0,1,0,86.19v-.85a.58.58,0,0,1,.65-.64H14.28A.58.58,0,0,1,14.93,85.34Z" fill="#fff"/><path d="M30.15,99.37v.38a.61.61,0,0,1-.68.62H16.16a5.87,5.87,0,0,0,6.13,5.36,5.3,5.3,0,0,0,4.65-2.31.87.87,0,0,1,.78-.45h1c.49,0,.75.26.59.65a7.55,7.55,0,0,1-7.08,4.18c-5,0-8.31-3.6-8.31-8.5s3.28-8.5,8.31-8.5S30.15,94.92,30.15,99.37Zm-7.89-6.5a5.9,5.9,0,0,0-6.1,5.42H27.94a5.63,5.63,0,0,0-5.68-5.42Z" fill="#fff"/><path d="M48.48,103A7.93,7.93,0,0,1,41,107.8a8.5,8.5,0,1,1,0-17,8,8,0,0,1,7.53,4.83c.2.46-.06.75-.52.75H47a.82.82,0,0,1-.78-.49,5.83,5.83,0,0,0-5.29-3,6.43,6.43,0,0,0,0,12.86,5.82,5.82,0,0,0,5.29-3,.82.82,0,0,1,.78-.49H48C48.42,102.22,48.68,102.51,48.48,103Z" fill="#fff"/><path d="M59.13,90.8c3,0,5.51,2.27,5.51,6v10a.57.57,0,0,1-.65.64h-.84a.58.58,0,0,1-.65-.64v-10a3.58,3.58,0,0,0-3.76-3.93c-2.21,0-4.61,1.37-4.61,5.39v8.51a.58.58,0,0,1-.65.64h-.85a.57.57,0,0,1-.64-.64V91.84a.57.57,0,0,1,.64-.65h.85a.58.58,0,0,1,.65.65v1.5a5.51,5.51,0,0,1,5-2.54Z" fill="#fff"/><path d="M67.82,99.3a8.54,8.54,0,1,1,8.54,8.5A8.44,8.44,0,0,1,67.82,99.3Zm14.93,0a6.4,6.4,0,1,0-6.39,6.43A6.33,6.33,0,0,0,82.75,99.3Z" fill="#fff"/><path d="M88.46,106.77V84.7a.58.58,0,0,1,.65-.65H90a.58.58,0,0,1,.65.65v22.07a.58.58,0,0,1-.65.64h-.84A.57.57,0,0,1,88.46,106.77Z" fill="#fff"/><path d="M94.17,99.3a8.54,8.54,0,1,1,8.53,8.5A8.44,8.44,0,0,1,94.17,99.3Zm14.93,0a6.4,6.4,0,1,0-6.4,6.43A6.34,6.34,0,0,0,109.1,99.3Z" fill="#fff"/><path d="M130.91,91.84v14.93c0,4.93-3.8,7.52-8.15,7.52-3.7,0-7.27-2.3-7.73-5.38a.58.58,0,0,1,.65-.68h.85c.39,0,.58.19.68.58.42,1.59,2.4,3.41,5.55,3.41,3.93,0,6-2.14,6-5.45v-2.53a7.47,7.47,0,0,1-6.55,3.56,8.5,8.5,0,0,1,0-17,7.47,7.47,0,0,1,6.55,3.56V91.84a.58.58,0,0,1,.65-.65h.85A.58.58,0,0,1,130.91,91.84Zm-2.15,7.46a6.39,6.39,0,1,0-6.39,6.43A6.33,6.33,0,0,0,128.76,99.3Z" fill="#fff"/><path d="M135.44,87.29v-2a.58.58,0,0,1,.65-.64h.85a.58.58,0,0,1,.65.64v2a.59.59,0,0,1-.65.65h-.85A.59.59,0,0,1,135.44,87.29Zm0,19.48V91.84a.58.58,0,0,1,.65-.65h.85a.58.58,0,0,1,.65.65v14.93a.58.58,0,0,1-.65.64h-.85A.58.58,0,0,1,135.44,106.77Z" fill="#fff"/><path d="M154.14,96.87v9.9a.58.58,0,0,1-.65.64h-.85a.57.57,0,0,1-.64-.64v-1.18a5.85,5.85,0,0,1-5,2.21c-3,0-5.81-1.72-5.81-5.22S144,97.35,147,97.35a6.3,6.3,0,0,1,5,2.12v-2.6a3.69,3.69,0,0,0-4-4c-1.88,0-3.63.88-4,2.73-.1.39-.29.62-.68.62h-.84a.58.58,0,0,1-.65-.68c.35-2.76,2.76-4.74,6.13-4.74C151.61,90.8,154.14,93.1,154.14,96.87ZM152,102.58c0-2-1.92-3.21-4.52-3.21-2.88,0-4.18,1.36-4.18,3.21s1.3,3.21,4.18,3.21C150.08,105.79,152,104.43,152,102.58Z" fill="#fff"/><path d="M158.29,106.77v-1.63a.59.59,0,0,1,.65-.65h1.62a.59.59,0,0,1,.65.65v1.63a.58.58,0,0,1-.65.64h-1.62A.58.58,0,0,1,158.29,106.77Z" fill="#fff"/><path d="M175.81,85.34v.85a.58.58,0,0,1-.65.65h-5.67v19.93a.58.58,0,0,1-.65.64h-1a.58.58,0,0,1-.65-.64V86.84h-5.68a.59.59,0,0,1-.65-.65v-.85a.58.58,0,0,1,.65-.64h13.63A.57.57,0,0,1,175.81,85.34Z" fill="#fff"/><path d="M191,99.37v.38a.61.61,0,0,1-.68.62h-13.3a5.87,5.87,0,0,0,6.13,5.36,5.29,5.29,0,0,0,4.64-2.31.88.88,0,0,1,.78-.45h1c.48,0,.74.26.58.65a7.52,7.52,0,0,1-7.07,4.18c-5,0-8.31-3.6-8.31-8.5s3.28-8.5,8.31-8.5S191,94.92,191,99.37Zm-7.88-6.5A5.9,5.9,0,0,0,177,98.29h11.79c-.4-3.57-2.9-5.42-5.68-5.42Z" fill="#fff"/><path d="M209.37,103a7.94,7.94,0,0,1-7.53,4.83,8.5,8.5,0,1,1,0-17,8,8,0,0,1,7.53,4.83c.19.46-.07.75-.52.75h-.94a.81.81,0,0,1-.78-.49,5.86,5.86,0,0,0-5.29-3,6.43,6.43,0,0,0,0,12.86,5.82,5.82,0,0,0,5.29-3,.81.81,0,0,1,.78-.49h.94C209.3,102.22,209.56,102.51,209.37,103Z" fill="#fff"/><path d="M225.53,96.8v10a.58.58,0,0,1-.65.64H224a.58.58,0,0,1-.65-.64v-10a3.58,3.58,0,0,0-3.76-3.93c-2.21,0-4.61,1.37-4.61,5.39v8.51a.58.58,0,0,1-.65.64h-.84a.58.58,0,0,1-.65-.64V85.34a.58.58,0,0,1,.65-.64h.84a.58.58,0,0,1,.65.64v8a5.53,5.53,0,0,1,5-2.54C223,90.8,225.53,93.07,225.53,96.8Z" fill="#fff"/><path d="M162.33,75.35V69.78c0-10.35,0-20.7,0-31A2.32,2.32,0,0,0,161,36.38Q145.78,27.7,130.64,18.9L129.19,18c2.08-1.2,4-2.34,5.95-3.39.24-.14.76,0,1.06.21,10.57,6.08,21.13,12.2,31.7,18.26.75.43.74,1,.74,1.65V64.55c2.11-1.22,4-2.29,5.89-3.44A1.49,1.49,0,0,0,175,60c0-9.73,0-19.46,0-29.19,0-.92-.55-1.2-1.16-1.55L143.3,11.61c-.45-.25-.89-.53-1.47-.88,2-1.15,3.85-2.27,5.76-3.27a1.75,1.75,0,0,1,1.39.25q10.77,6.15,21.49,12.37c3.21,1.86,6.41,3.74,9.65,5.55a1.84,1.84,0,0,1,1.09,1.86c0,9.37,0,18.75,0,28.12V57.3c2.18-1.26,4.12-2.35,6-3.52.23-.14.31-.69.31-1.05,0-9.73,0-19.46.05-29.19,0-.93-.52-1.2-1.14-1.56q-15.39-8.86-30.77-17.76l-1.27-.75c2.11-1.21,4.06-2.36,6-3.43.24-.13.76.1,1.08.29Q177.27,9.39,193,18.47a1.55,1.55,0,0,1,.88,1.57c0,12.07,0,24.14,0,36.22a1.82,1.82,0,0,1-.65,1.37q-15.12,8.81-30.3,17.52A5,5,0,0,1,162.33,75.35Z" fill="#fff"/><path d="M127.54,50l25.21,14.54c0-2.46.05-4.65,0-6.84,0-.37-.59-.81-1-1q-11.46-6.66-23-13.24a2.13,2.13,0,0,1-1.23-2.18c0-6.28,0-12.55,0-18.83V21c.49.24.84.39,1.17.58q14.7,8.47,29.39,17a1.71,1.71,0,0,1,1,1.78c-.07,1.93,0,3.86,0,6.08L133.86,31.81c0,2.46-.05,4.66,0,6.85,0,.37.6.81,1,1.05,7.41,4.31,14.82,8.62,22.28,12.84a3.18,3.18,0,0,1,1.94,3.24c-.13,6,0,12,0,18v1.58c-.52-.26-.87-.41-1.2-.6q-14.64-8.44-29.28-16.88a1.82,1.82,0,0,1-1.08-1.86C127.59,54.14,127.54,52.21,127.54,50Z" fill="#fff"/></svg>